# Blender v3.1.2 OBJ File: ''
# www.blender.org
mtllib denjy.mtl
o Plane.001
v 0.059344 -0.056527 -0.133454
v 0.059344 0.133454 0.133454
v 0.059344 -0.056527 0.133454
v -0.039505 0.133454 -0.133454
v 0.059344 0.133454 -0.133454
v -0.039505 0.133454 0.133454
v -0.039505 -0.056527 0.133454
v -0.039505 -0.056527 -0.133454
v 0.059344 0.216976 0.167818
v -0.039505 0.216976 0.167818
v 0.059344 0.216975 -0.167818
v -0.039505 0.216975 -0.167818
v 0.059344 0.296101 -0.167818
v 0.059344 0.296101 0.167818
v -0.039505 0.296101 -0.167818
v -0.039505 0.296101 0.167818
v -0.039505 0.408195 -0.198356
v -0.039505 0.103690 0.293573
v -0.039505 0.408195 0.198356
v 0.059344 0.103690 -0.293573
v 0.059344 0.408195 -0.198356
v 0.059344 0.408195 0.198356
v -0.039505 0.443362 0.066809
v 0.059344 0.443362 0.066809
v -0.039505 0.443362 -0.066809
v 0.059344 0.443362 -0.066809
v 0.051673 0.502706 -0.056440
v -0.015532 -0.120499 -0.283178
v -0.039505 0.103690 -0.293573
v -0.015532 -0.120863 0.246509
v -0.015532 -0.120499 0.283177
v -0.039505 0.103326 -0.230240
v 0.059344 0.103326 -0.230240
v 0.059344 0.103690 0.293573
v 0.059344 0.103326 0.230240
v -0.039505 0.103326 0.230240
v -0.039505 -0.186437 0.283177
v 0.035371 -0.120863 -0.246509
v 0.059344 -0.186437 -0.283178
v 0.035371 -0.120499 -0.283178
v 0.035371 -0.120863 0.246509
v -0.015532 -0.120863 -0.246509
v 0.035371 -0.120499 0.283177
v -0.039505 -0.186801 -0.246509
v 0.059344 -0.186801 -0.246509
v 0.059344 -0.186801 0.246509
v -0.039505 -0.186801 0.246509
v -0.039505 -0.186437 -0.283178
v 0.059344 -0.186437 0.283177
v -0.046267 -0.131474 -0.151712
v 0.066106 -0.131474 -0.151711
v -0.046267 -0.131474 0.151712
v 0.066106 -0.131474 0.151712
v 0.062563 -0.523430 -0.142145
v -0.042724 -0.523430 0.142145
v -0.042724 -0.523430 -0.142145
v 0.062563 -0.523430 0.142145
v -0.054550 -0.701178 0.174078
v 0.074389 -0.701178 -0.174078
v -0.054550 -0.701178 -0.174078
v 0.074389 -0.701178 0.174078
v -0.031834 0.502706 0.056440
v -0.041679 0.518092 -0.069748
v -0.031834 0.502706 -0.056440
v 0.051673 0.502706 0.056440
v 0.061518 0.518092 -0.069748
v -0.041679 0.665353 -0.069748
v 0.061518 0.665353 -0.069748
v -0.041679 0.518092 0.069748
v 0.061518 0.518092 0.069748
v 0.061518 0.665353 0.069748
v -0.031109 0.676343 0.055460
v -0.041679 0.665353 0.069748
v 0.050948 0.676343 -0.055460
v 0.050948 0.676343 0.055460
v -0.031109 0.676343 -0.055460
vn 1.0000 -0.0000 0.0000
vn 0.0000 0.0000 -1.0000
vn 0.0000 -0.0000 1.0000
vn -1.0000 -0.0000 0.0000
vn 0.0000 -0.3805 0.9248
vn 0.0000 -0.3805 -0.9248
vn 0.0000 0.9661 0.2583
vn 0.0000 0.9661 -0.2583
vn 0.0000 0.1721 -0.9851
vn 0.0000 -0.0463 -0.9989
vn -0.9943 -0.1063 0.0007
vn -0.9943 -0.1064 0.0010
vn -0.9943 -0.1064 0.0011
vn -0.9943 -0.1063 0.0006
vn 0.0000 -0.3081 0.9514
vn 0.0000 0.2984 0.9544
vn 0.0000 -0.3081 -0.9514
vn 0.0000 0.2984 -0.9544
vn -0.9398 0.3417 -0.0034
vn 0.9398 0.3417 0.0034
vn 0.0000 -0.0724 0.9974
vn 0.9943 -0.1063 0.0007
vn 0.9943 -0.1064 0.0010
vn 0.9943 -0.1063 0.0006
vn 0.9943 -0.1064 0.0011
vn -0.9943 -0.1064 -0.0010
vn -0.9943 -0.1063 -0.0006
vn -0.9943 -0.1064 -0.0011
vn 0.0000 -0.0463 0.9989
vn 0.0000 -0.0724 -0.9974
vn 0.9943 -0.1064 -0.0010
vn 0.9943 -0.1064 -0.0011
vn 0.9943 -0.1063 -0.0006
vn 0.0000 -1.0000 -0.0099
vn 0.0000 -1.0000 0.0099
vn 0.9398 0.3417 -0.0034
vn -0.9398 0.3417 0.0034
vn 0.0000 0.2367 -0.9716
vn 0.9960 0.0899 0.0000
vn -0.9960 0.0899 0.0000
vn 0.0000 0.2367 0.9716
vn 1.0000 -0.0090 -0.0000
vn -1.0000 -0.0090 0.0000
vn 0.0000 -0.0244 -0.9997
vn 0.0000 -0.0244 0.9997
vn -0.9978 0.0664 0.0000
vn 0.0000 0.1768 -0.9842
vn 0.0000 0.1768 0.9842
vn 0.9978 0.0664 0.0000
vn 0.0000 -1.0000 0.0000
vn -0.8423 -0.5390 0.0000
vn 0.0000 0.1721 0.9851
vn 0.9917 0.1282 0.0000
vn -0.9917 0.1282 0.0000
vn 0.0000 -0.6542 -0.7563
vn 0.0000 -0.6542 0.7563
vn 0.8423 -0.5390 0.0000
vn 0.0000 0.7926 0.6097
vn 0.0000 1.0000 0.0000
vn 0.7207 0.6932 0.0000
vn -0.7207 0.6932 0.0000
vn 0.0000 0.7926 -0.6097
usemtl Default_OBJ
s 1
f 1//1 2//1 3//1
f 2//1 11//1 9//1
f 9//1 13//1 14//1
f 13//1 20//1 21//1
f 14//1 21//1 22//1
f 21//1 24//1 22//1
f 14//1 34//1 35//1
f 1//1 5//1 2//1
f 2//1 5//1 11//1
f 9//1 11//1 13//1
f 13//1 33//1 20//1
f 14//1 13//1 21//1
f 21//1 26//1 24//1
f 14//1 22//1 34//1
s 2
f 1//2 4//2 5//2
f 1//2 8//2 4//2
s 3
f 3//3 6//3 7//3
f 3//3 2//3 6//3
s 4
f 7//4 4//4 8//4
f 6//4 12//4 4//4
f 10//4 15//4 12//4
f 16//4 17//4 15//4
f 16//4 18//4 19//4
f 19//4 25//4 17//4
f 15//4 29//4 32//4
f 7//4 6//4 4//4
f 6//4 10//4 12//4
f 10//4 16//4 15//4
f 16//4 19//4 17//4
f 16//4 36//4 18//4
f 19//4 23//4 25//4
f 15//4 17//4 29//4
s 5
f 6//5 9//5 10//5
f 6//5 2//5 9//5
s 6
f 4//6 11//6 5//6
f 4//6 12//6 11//6
s 7
f 12//2 13//2 11//2
f 12//2 15//2 13//2
s 8
f 9//3 16//3 10//3
f 9//3 14//3 16//3
s 9
f 22//7 23//7 19//7
f 22//7 24//7 23//7
s 10
f 17//8 26//8 21//8
f 17//8 25//8 26//8
s 11
f 25//9 27//9 26//9
f 25//9 64//9 27//9
s 12
f 20//10 28//10 29//10
f 20//10 40//10 28//10
s 13
f 18//11 30//12 31//13
f 18//11 36//14 30//12
s 14
f 13//15 32//15 33//15
f 13//15 15//15 32//15
s 15
f 19//16 34//16 22//16
f 19//16 18//16 34//16
s 16
f 14//17 36//17 16//17
f 14//17 35//17 36//17
s 17
f 21//18 29//18 17//18
f 21//18 20//18 29//18
s 18
f 30//19 37//19 31//19
f 30//19 47//19 37//19
s 19
f 38//20 39//20 40//20
f 38//20 45//20 39//20
s 20
f 32//21 38//21 33//21
f 32//21 42//21 38//21
s 21
f 34//22 41//23 35//24
f 34//22 43//25 41//23
s 22
f 29//26 42//26 32//27
f 29//26 28//28 42//26
s 23
f 18//29 43//29 34//29
f 18//29 31//29 43//29
s 24
f 35//30 30//30 36//30
f 35//30 41//30 30//30
s 25
f 20//31 38//31 40//32
f 20//31 33//33 38//31
s 26
f 44//34 39//34 45//34
f 44//34 48//34 39//34
s 27
f 46//35 37//35 47//35
f 46//35 49//35 37//35
s 28
f 28//2 39//2 48//2
f 28//2 40//2 39//2
s 29
f 42//3 45//3 38//3
f 42//3 44//3 45//3
s 30
f 41//36 49//36 46//36
f 41//36 43//36 49//36
s 31
f 42//37 48//37 44//37
f 42//37 28//37 48//37
s 32
f 31//3 49//3 43//3
f 31//3 37//3 49//3
s 33
f 41//2 47//2 30//2
f 41//2 46//2 47//2
s 34
f 1//38 50//38 8//38
f 1//38 51//38 50//38
s 35
f 3//39 51//39 1//39
f 3//39 53//39 51//39
s 36
f 8//40 52//40 7//40
f 8//40 50//40 52//40
s 37
f 7//41 53//41 3//41
f 7//41 52//41 53//41
s 38
f 53//42 54//42 51//42
f 53//42 57//42 54//42
s 39
f 50//43 55//43 52//43
f 50//43 56//43 55//43
s 40
f 51//44 56//44 50//44
f 51//44 54//44 56//44
s 41
f 52//45 57//45 53//45
f 52//45 55//45 57//45
s 42
f 56//46 58//46 55//46
f 56//46 60//46 58//46
s 43
f 56//47 59//47 60//47
f 56//47 54//47 59//47
s 44
f 55//48 61//48 57//48
f 55//48 58//48 61//48
s 45
f 57//49 59//49 54//49
f 57//49 61//49 59//49
s 46
f 58//50 59//50 61//50
f 58//50 60//50 59//50
s 47
f 62//51 63//51 64//51
f 62//51 69//51 63//51
s 48
f 24//52 62//52 23//52
f 24//52 65//52 62//52
s 49
f 26//53 65//53 24//53
f 26//53 27//53 65//53
s 50
f 23//54 64//54 25//54
f 23//54 62//54 64//54
s 51
f 66//2 67//2 68//2
f 66//2 63//2 67//2
s 52
f 64//55 66//55 27//55
f 64//55 63//55 66//55
s 53
f 65//56 69//56 62//56
f 65//56 70//56 69//56
s 54
f 27//57 70//57 65//57
f 27//57 66//57 70//57
s 55
f 71//58 72//58 73//58
f 71//58 75//58 72//58
s 56
f 70//3 73//3 69//3
f 70//3 71//3 73//3
s 57
f 66//1 71//1 70//1
f 66//1 68//1 71//1
s 58
f 69//4 67//4 63//4
f 69//4 73//4 67//4
s 59
f 74//59 72//59 75//59
f 74//59 76//59 72//59
s 60
f 68//60 75//60 71//60
f 68//60 74//60 75//60
s 61
f 73//61 76//61 67//61
f 73//61 72//61 76//61
s 62
f 68//62 76//62 74//62
f 68//62 67//62 76//62
