# Blender v3.1.2 OBJ File: ''
# www.blender.org
mtllib sky 823.mtl
o Cube_Cube.001
v -48.000000 -48.000000 48.000000
v -48.000000 48.000000 48.000000
v -48.000000 -48.000000 -48.000000
v -48.000000 48.000000 -48.000000
v 48.000000 -48.000000 48.000000
v 48.000000 48.000000 48.000000
v 48.000000 -48.000000 -48.000000
v 48.000000 48.000000 -48.000000
vt 0.751953 0.669271
vt 0.498047 0.335938
vt 0.751953 0.335938
vt 0.498351 0.665682
vt 0.248843 0.332349
vt 0.498351 0.332349
vt 0.250977 0.665873
vt -0.000977 0.332540
vt 0.250977 0.332540
vt 0.999510 0.668307
vt 0.750490 0.334974
vt 0.999510 0.334974
vt 0.500000 0.000000
vt 0.250000 0.334744
vt 0.250000 0.000000
vt 0.500000 0.668794
vt 0.250000 1.000000
vt 0.250000 0.668794
vt 0.498047 0.669271
vt 0.248843 0.665682
vt -0.000977 0.665873
vt 0.750490 0.668307
vt 0.500000 0.334744
vt 0.500000 1.000000
vn -1.0000 0.0000 0.0000
vn 0.0000 0.0000 -1.0000
vn 1.0000 0.0000 0.0000
vn 0.0000 0.0000 1.0000
vn 0.0000 -1.0000 0.0000
vn 0.0000 1.0000 0.0000
usemtl Material.001
s off
f 2/1/1 3/2/1 1/3/1
f 4/4/2 7/5/2 3/6/2
f 8/7/3 5/8/3 7/9/3
f 6/10/4 1/11/4 5/12/4
f 7/13/5 1/14/5 3/15/5
f 4/16/6 6/17/6 8/18/6
f 2/1/1 4/19/1 3/2/1
f 4/4/2 8/20/2 7/5/2
f 8/7/3 6/21/3 5/8/3
f 6/10/4 2/22/4 1/11/4
f 7/13/5 5/23/5 1/14/5
f 4/16/6 2/24/6 6/17/6
