# Blender v3.1.2 OBJ File: ''
# www.blender.org
mtllib cube.mtl
o Cube
v 1.000000 1.000000 -1.000000
v 1.000000 -1.000000 -1.000000
v 1.000000 1.000000 1.000000
v 1.000000 -1.000000 1.000000
v -1.000000 1.000000 -1.000000
v -1.000000 -1.000000 -1.000000
v -1.000000 1.000000 1.000000
v -1.000000 -1.000000 1.000000
vt 0.875000 0.500000
vt 0.625000 0.750000
vt 0.625000 0.500000
vt 0.875000 0.750000
vt 0.375000 0.750000
vt 0.375000 0.500000
vt 0.625000 0.000000
vt 0.375000 0.250000
vt 0.375000 0.000000
vt 0.625000 0.250000
vt 0.375000 1.000000
vt 0.625000 1.000000
vt 0.125000 0.750000
vt 0.125000 0.500000
vn 0.0000 1.0000 0.0000
vn 1.0000 0.0000 0.0000
vn -1.0000 0.0000 0.0000
vn 0.0000 0.0000 1.0000
vn 0.0000 0.0000 -1.0000
vn 0.0000 -1.0000 0.0000
usemtl Material
s off
f 5/1/1 3/2/1 1/3/1
f 5/1/1 7/4/1 3/2/1
usemtl Material.001
f 1/3/2 4/5/2 2/6/2
f 1/3/2 3/2/2 4/5/2
usemtl Material.002
f 7/7/3 6/8/3 8/9/3
f 7/7/3 5/10/3 6/8/3
usemtl Material.003
f 3/2/4 8/11/4 4/5/4
f 3/2/4 7/12/4 8/11/4
usemtl Material.004
f 5/10/5 2/6/5 6/8/5
f 5/10/5 1/3/5 2/6/5
usemtl Material.005
f 2/6/6 8/13/6 6/14/6
f 2/6/6 4/5/6 8/13/6
