# Blender v3.1.2 OBJ File: ''
# www.blender.org
mtllib rock.mtl
o Plane
v 0.000000 0.000000 0.000000
v 5.056572 0.000000 -2.704381
v 2.979293 0.000000 -1.940099
v 0.889398 0.000000 0.052210
v 7.133850 0.000000 -1.900905
v 8.074505 0.000000 0.019597
v 7.349417 0.000000 1.371787
v 8.877980 0.000000 3.272693
v 9.171935 0.000000 5.624329
v 7.329821 0.000000 6.800147
v 6.016824 0.000000 5.741910
v 3.410427 0.000000 6.584580
v 2.410982 0.000000 7.505637
v 0.216122 0.000000 7.270473
v -0.763726 0.000000 5.879089
v -1.057680 0.000000 4.154557
v -2.233498 0.000000 2.253651
v -5.584579 0.000000 3.605842
v -8.582915 0.000000 5.173599
v -12.544951 0.000000 4.767236
v -14.847673 0.000000 2.904741
v -16.168352 0.000000 -0.075252
v -18.471073 0.000000 -2.445700
v -21.010839 0.000000 -7.220461
v -20.604477 0.000000 -11.588860
v -18.979027 0.000000 -12.299994
v -18.206614 0.000000 -17.285576
v -15.959591 0.000000 -20.656111
v -8.446108 0.000000 -22.411598
v -0.932625 0.000000 -19.111282
v 5.948883 0.000000 -24.869278
v 6.931956 0.000000 -24.658619
v 8.406565 0.000000 -25.220375
v 9.600296 0.000000 -24.939497
v 15.007195 0.000000 -23.043571
v 16.762682 0.000000 -18.830402
v 15.358293 0.000000 -15.108770
v 17.113779 0.000000 -12.861748
v 16.060488 0.000000 -9.631652
v 19.220364 0.000000 -5.910020
v 19.501242 0.000000 -2.399046
v 17.324438 0.000000 0.058635
v 15.288074 0.000000 2.305658
v 12.830392 0.000000 0.269294
v 10.302491 0.000000 -0.152023
v 8.125688 0.000000 -1.345754
v 7.423493 0.000000 -2.539485
v 4.965812 0.000000 -4.224752
v 2.437911 0.000000 -3.522558
v 1.595277 0.000000 -2.188388
v 0.190888 0.000000 -1.345754
v -0.240246 0.000000 -0.346309
v 0.328066 0.000000 -0.032758
v 0.000000 6.000000 0.000000
v 5.056572 6.000000 -2.704381
v 2.979293 6.000000 -1.940099
v 0.889398 6.000000 0.052210
v 7.133850 6.000000 -1.900905
v 8.074505 6.000000 0.019597
v 7.349417 6.000000 1.371787
v 8.877980 6.000000 3.272693
v 9.171935 6.000000 5.624329
v 7.329821 6.000000 6.800147
v 6.016824 6.000000 5.741910
v 3.410427 6.000000 6.584580
v 2.410982 6.000000 7.505637
v 0.216122 6.000000 7.270473
v -0.763726 6.000000 5.879089
v -1.057680 6.000000 4.154557
v -2.233498 6.000000 2.253651
v -5.584579 6.000000 3.605842
v -8.582915 6.000000 5.173599
v -12.544951 6.000000 4.767236
v -14.847673 6.000000 2.904741
v -16.168352 6.000000 -0.075252
v -18.471073 6.000000 -2.445700
v -21.010839 6.000000 -7.220461
v -20.604477 6.000000 -11.588860
v -18.979027 6.000000 -12.299994
v -18.206614 6.000000 -17.285576
v -15.959591 6.000000 -20.656111
v -8.446108 6.000000 -22.411598
v -0.932625 6.000000 -19.111282
v 5.948883 6.000000 -24.869278
v 6.931956 6.000000 -24.658619
v 8.406565 6.000000 -25.220375
v 9.600296 6.000000 -24.939497
v 15.007195 6.000000 -23.043571
v 16.762682 6.000000 -18.830402
v 15.358293 6.000000 -15.108770
v 17.113779 6.000000 -12.861748
v 16.060488 6.000000 -9.631652
v 19.220364 6.000000 -5.910020
v 19.501242 6.000000 -2.399046
v 17.324438 6.000000 0.058635
v 15.288074 6.000000 2.305658
v 12.830392 6.000000 0.269294
v 10.302491 6.000000 -0.152023
v 8.125688 6.000000 -1.345754
v 7.423493 6.000000 -2.539485
v 4.965812 6.000000 -4.224752
v 2.437911 6.000000 -3.522558
v 1.595277 6.000000 -2.188388
v 0.190888 6.000000 -1.345754
v -0.240246 6.000000 -0.346309
v 0.328066 6.000000 -0.032758
vt 0.000000 0.000000
vt 0.000000 0.000000
vt 0.000000 0.000000
vt 0.000000 0.000000
vt 0.000000 0.000000
vt 0.000000 0.000000
vt 0.000000 0.000000
vt 0.000000 0.000000
vt 0.000000 0.000000
vt 0.000000 0.000000
vt 0.000000 0.000000
vt 0.000000 0.000000
vt 0.000000 0.000000
vt 0.000000 0.000000
vt 0.000000 0.000000
vt 0.000000 0.000000
vt 0.000000 0.000000
vt 0.000000 0.000000
vt 0.000000 0.000000
vt 0.000000 0.000000
vt 0.000000 0.000000
vt 0.000000 0.000000
vt 0.000000 0.000000
vt 0.000000 0.000000
vt 0.000000 0.000000
vt 0.000000 0.000000
vt 0.000000 0.000000
vt 0.000000 0.000000
vt 0.000000 0.000000
vt 0.000000 0.000000
vt 0.000000 0.000000
vt 0.000000 0.000000
vt 0.000000 0.000000
vt 0.000000 0.000000
vt 0.000000 0.000000
vt 0.000000 0.000000
vt 0.000000 0.000000
vt 0.000000 0.000000
vt 0.000000 0.000000
vt 0.000000 0.000000
vt 0.000000 0.000000
vt 0.000000 0.000000
vt 0.000000 0.000000
vt 0.000000 0.000000
vt 0.000000 0.000000
vt 0.000000 0.000000
vt 0.000000 0.000000
vt 0.000000 0.000000
vt 0.000000 0.000000
vt 0.000000 0.000000
vt 0.000000 0.000000
vt 0.000000 0.000000
vt 0.000000 0.000000
vt 0.000000 0.000000
vt 0.000000 0.000000
vt 0.000000 0.000000
vt 0.000000 0.000000
vt 0.000000 0.000000
vt 0.000000 0.000000
vt 0.000000 0.000000
vt 0.000000 0.000000
vt 0.000000 0.000000
vt 0.000000 0.000000
vt 0.000000 0.000000
vt 0.000000 0.000000
vt 0.000000 0.000000
vt 0.000000 0.000000
vt 0.000000 0.000000
vt 0.000000 0.000000
vt 0.000000 0.000000
vt 0.000000 0.000000
vt 0.000000 0.000000
vt 0.000000 0.000000
vt 0.000000 0.000000
vt 0.000000 0.000000
vt 0.000000 0.000000
vt 0.000000 0.000000
vt 0.000000 0.000000
vt 0.000000 0.000000
vt 0.000000 0.000000
vt 0.000000 0.000000
vt 0.000000 0.000000
vt 0.000000 0.000000
vt 0.000000 0.000000
vt 0.000000 0.000000
vt 0.000000 0.000000
vt 0.000000 0.000000
vt 0.000000 0.000000
vt 0.000000 0.000000
vt 0.000000 0.000000
vt 0.000000 0.000000
vt 0.000000 0.000000
vt 0.000000 0.000000
vt 0.000000 0.000000
vt 0.000000 0.000000
vt 0.000000 0.000000
vt 0.000000 0.000000
vt 0.000000 0.000000
vt 0.000000 0.000000
vt 0.000000 0.000000
vt 0.000000 0.000000
vt 0.000000 0.000000
vt 0.000000 0.000000
vt 0.000000 0.000000
vt 0.000000 0.000000
vt 0.000000 0.000000
vn -0.3742 0.0000 -0.9274
vn 0.1644 0.0000 -0.9864
vn -0.4634 0.0000 -0.8862
vn 0.4808 0.0000 -0.8768
vn 0.1020 0.0000 -0.9948
vn 0.8619 0.0000 -0.5070
vn 0.6289 0.0000 -0.7775
vn 0.5655 0.0000 -0.8247
vn 0.9142 0.0000 -0.4052
vn -0.2676 0.0000 -0.9635
vn 0.7173 0.0000 -0.6968
vn -0.8455 0.0000 -0.5340
vn 0.8829 0.0000 -0.4696
vn -0.5145 0.0000 -0.8575
vn 0.9957 0.0000 0.0926
vn -0.9182 0.0000 -0.3961
vn 0.4008 0.0000 0.9162
vn -0.4831 0.0000 0.8756
vn 0.9882 0.0000 0.1531
vn -0.1497 0.0000 0.9887
vn 0.8321 0.0000 0.5547
vn -0.8981 0.0000 0.4399
vn 0.2275 0.0000 0.9738
vn -0.3607 0.0000 0.9327
vn -0.4022 0.0000 0.9156
vn 0.3453 0.0000 0.9385
vn 0.6417 0.0000 0.7669
vn 0.6900 0.0000 0.7238
vn -0.2095 0.0000 0.9778
vn -0.0586 0.0000 0.9983
vn 0.3560 0.0000 0.9345
vn -0.8813 0.0000 -0.4726
vn -0.2290 0.0000 0.9734
vn -0.7793 0.0000 0.6267
vn -0.3309 0.0000 0.9437
vn -0.9923 0.0000 0.1240
vn -0.9231 0.0000 0.3846
vn -0.5380 0.0000 -0.8429
vn -0.9356 0.0000 -0.3531
vn 0.6275 0.0000 -0.7786
vn -0.7880 0.0000 0.6156
vn -0.3076 0.0000 -0.9515
vn -0.9507 0.0000 -0.3100
vn -0.6777 0.0000 -0.7354
vn -0.7623 0.0000 0.6472
vn 0.1065 0.0000 -0.9943
vn -0.9968 0.0000 0.0797
vn 0.8176 0.0000 -0.5758
vn -0.7486 0.0000 -0.6630
vn 0.9858 0.0000 -0.1680
vn -0.7410 0.0000 -0.6715
vn 0.8505 0.0000 -0.5261
vn 0.6380 0.0000 -0.7700
usemtl None
s off
f 18/1/1 70/2/1 17/3/1
f 45/4/2 97/5/2 44/6/2
f 19/7/3 71/8/3 18/1/3
f 46/9/4 98/10/4 45/4/4
f 20/11/5 72/12/5 19/7/5
f 47/13/6 99/14/6 46/9/6
f 21/15/7 73/16/7 20/11/7
f 48/17/8 100/18/8 47/13/8
f 22/19/9 74/20/9 21/15/9
f 49/21/10 101/22/10 48/17/10
f 23/23/11 75/24/11 22/19/11
f 50/25/12 102/26/12 49/21/12
f 24/27/13 76/28/13 23/23/13
f 51/29/14 103/30/14 50/25/14
f 25/31/15 77/32/15 24/27/15
f 52/33/16 104/34/16 51/29/16
f 26/35/17 78/36/17 25/31/17
f 53/37/18 105/38/18 52/33/18
f 27/39/19 79/40/19 26/35/19
f 4/41/20 106/42/20 53/37/20
f 28/43/21 80/44/21 27/39/21
f 6/45/22 58/46/22 5/47/22
f 29/48/23 81/49/23 28/43/23
f 5/47/24 55/50/24 2/51/24
f 30/52/25 82/53/25 29/48/25
f 2/51/26 56/54/26 3/55/26
f 31/56/27 83/57/27 30/52/27
f 3/55/28 57/58/28 4/41/28
f 32/59/29 84/60/29 31/56/29
f 4/41/30 54/61/30 1/62/30
f 33/63/31 85/64/31 32/59/31
f 7/65/32 59/66/32 6/45/32
f 34/67/33 86/68/33 33/63/33
f 8/69/34 60/70/34 7/65/34
f 35/71/35 87/72/35 34/67/35
f 9/73/36 61/74/36 8/69/36
f 36/75/37 88/76/37 35/71/37
f 10/77/38 62/78/38 9/73/38
f 37/79/39 89/80/39 36/75/39
f 11/81/40 63/82/40 10/77/40
f 38/83/41 90/84/41 37/79/41
f 12/85/42 64/86/42 11/81/42
f 39/87/43 91/88/43 38/83/43
f 13/89/44 65/90/44 12/85/44
f 40/91/45 92/92/45 39/87/45
f 14/93/46 66/94/46 13/89/46
f 41/95/47 93/96/47 40/91/47
f 15/97/48 67/98/48 14/93/48
f 42/99/49 94/100/49 41/95/49
f 16/101/50 68/102/50 15/97/50
f 43/103/51 95/104/51 42/99/51
f 17/3/52 69/105/52 16/101/52
f 44/6/53 96/106/53 43/103/53
f 18/1/1 71/8/1 70/2/1
f 45/4/2 98/10/2 97/5/2
f 19/7/3 72/12/3 71/8/3
f 46/9/4 99/14/4 98/10/4
f 20/11/5 73/16/5 72/12/5
f 47/13/6 100/18/6 99/14/6
f 21/15/7 74/20/7 73/16/7
f 48/17/8 101/22/8 100/18/8
f 22/19/9 75/24/9 74/20/9
f 49/21/10 102/26/10 101/22/10
f 23/23/11 76/28/11 75/24/11
f 50/25/12 103/30/12 102/26/12
f 24/27/13 77/32/13 76/28/13
f 51/29/14 104/34/14 103/30/14
f 25/31/15 78/36/15 77/32/15
f 52/33/16 105/38/16 104/34/16
f 26/35/17 79/40/17 78/36/17
f 53/37/18 106/42/18 105/38/18
f 27/39/19 80/44/19 79/40/19
f 4/41/20 57/58/20 106/42/20
f 28/43/21 81/49/21 80/44/21
f 6/45/22 59/66/22 58/46/22
f 29/48/23 82/53/23 81/49/23
f 5/47/24 58/46/24 55/50/24
f 30/52/25 83/57/25 82/53/25
f 2/51/26 55/50/26 56/54/26
f 31/56/27 84/60/27 83/57/27
f 3/55/28 56/54/28 57/58/28
f 32/59/29 85/64/29 84/60/29
f 4/41/30 57/58/30 54/61/30
f 33/63/31 86/68/31 85/64/31
f 7/65/32 60/70/32 59/66/32
f 34/67/33 87/72/33 86/68/33
f 8/69/34 61/74/34 60/70/34
f 35/71/35 88/76/35 87/72/35
f 9/73/36 62/78/36 61/74/36
f 36/75/37 89/80/37 88/76/37
f 10/77/38 63/82/38 62/78/38
f 37/79/39 90/84/39 89/80/39
f 11/81/40 64/86/40 63/82/40
f 38/83/41 91/88/41 90/84/41
f 12/85/42 65/90/42 64/86/42
f 39/87/43 92/92/43 91/88/43
f 13/89/44 66/94/44 65/90/44
f 40/91/45 93/96/45 92/92/45
f 14/93/46 67/98/46 66/94/46
f 41/95/47 94/100/47 93/96/47
f 15/97/48 68/102/48 67/98/48
f 42/99/49 95/104/49 94/100/49
f 16/101/50 69/105/50 68/102/50
f 43/103/51 96/106/51 95/104/51
f 17/3/52 70/2/52 69/105/52
f 44/6/53 97/5/53 96/106/53
o Plane.001
v -7.458106 0.000000 -13.196826
v -6.286991 0.000000 -8.766343
v -5.017108 0.000000 -10.911036
v -6.033015 0.000000 -12.801751
v -6.992482 0.000000 -6.226576
v -6.512748 0.000000 -4.505178
v -7.613314 0.000000 -3.235295
v -9.504029 0.000000 -4.053664
v -10.802132 0.000000 -5.408207
v -10.830352 0.000000 -7.298923
v -11.620502 0.000000 -9.387176
v -12.072016 0.000000 -12.237359
v -10.915010 0.000000 -13.789439
v -9.334711 0.000000 -13.366144
v -8.347025 0.000000 -14.184513
v -7.458106 4.892179 -13.196826
v -6.286991 4.892179 -8.766343
v -5.017108 4.892179 -10.911036
v -6.033015 4.892179 -12.801751
v -6.992482 4.892179 -6.226576
v -6.512748 4.892179 -4.505178
v -7.613314 4.892179 -3.235295
v -9.504029 4.892179 -4.053664
v -10.802132 4.892179 -5.408207
v -10.830352 4.892179 -7.298923
v -11.620502 4.892179 -9.387176
v -12.072016 4.892179 -12.237359
v -10.915010 4.892179 -13.789439
v -9.334711 4.892179 -13.366144
v -8.347025 4.892179 -14.184513
vt 0.000000 0.000000
vt 0.000000 0.000000
vt 0.000000 0.000000
vt 0.000000 0.000000
vt 0.000000 0.000000
vt 0.000000 0.000000
vt 0.000000 0.000000
vt 0.000000 0.000000
vt 0.000000 0.000000
vt 0.000000 0.000000
vt 0.000000 0.000000
vt 0.000000 0.000000
vt 0.000000 0.000000
vt 0.000000 0.000000
vt 0.000000 0.000000
vt 0.000000 0.000000
vt 0.000000 0.000000
vt 0.000000 0.000000
vt 0.000000 0.000000
vt 0.000000 0.000000
vt 0.000000 0.000000
vt 0.000000 0.000000
vt 0.000000 0.000000
vt 0.000000 0.000000
vt 0.000000 0.000000
vt 0.000000 0.000000
vt 0.000000 0.000000
vt 0.000000 0.000000
vt 0.000000 0.000000
vt 0.000000 0.000000
vn -0.7433 0.0000 0.6690
vn -0.9633 0.0000 0.2685
vn 0.9999 0.0000 -0.0149
vn -0.9635 0.0000 -0.2676
vn 0.9353 0.0000 -0.3539
vn -0.8605 0.0000 -0.5095
vn 0.9877 0.0000 -0.1565
vn -0.8809 0.0000 0.4733
vn 0.8017 0.0000 0.5977
vn -0.2672 0.0000 0.9637
vn -0.2587 0.0000 0.9659
vn -0.7557 0.0000 -0.6549
vn 0.6380 0.0000 0.7700
vn 0.3972 0.0000 -0.9177
vn 0.7220 0.0000 -0.6919
usemtl None
s off
f 107/107/54 136/108/54 121/109/54
f 112/110/55 126/111/55 111/112/55
f 116/113/56 130/114/56 115/115/56
f 111/112/57 123/116/57 108/117/57
f 117/118/58 131/119/58 116/113/58
f 108/117/59 124/120/59 109/121/59
f 118/122/60 132/123/60 117/118/60
f 109/121/61 125/124/61 110/125/61
f 119/126/62 133/127/62 118/122/62
f 110/125/63 122/128/63 107/107/63
f 120/129/64 134/130/64 119/126/64
f 113/131/65 127/132/65 112/110/65
f 121/109/66 135/133/66 120/129/66
f 114/134/67 128/135/67 113/131/67
f 115/115/68 129/136/68 114/134/68
f 107/107/54 122/128/54 136/108/54
f 112/110/55 127/132/55 126/111/55
f 116/113/56 131/119/56 130/114/56
f 111/112/57 126/111/57 123/116/57
f 117/118/58 132/123/58 131/119/58
f 108/117/59 123/116/59 124/120/59
f 118/122/60 133/127/60 132/123/60
f 109/121/61 124/120/61 125/124/61
f 119/126/62 134/130/62 133/127/62
f 110/125/63 125/124/63 122/128/63
f 120/129/64 135/133/64 134/130/64
f 113/131/65 128/135/65 127/132/65
f 121/109/66 136/108/66 135/133/66
f 114/134/67 129/136/67 128/135/67
f 115/115/68 130/114/68 129/136/68
o Plane.002
v -25.840000 0.000000 15.840000
v 25.840000 0.000000 15.840000
v -25.840000 0.000000 -35.840000
v 25.840000 0.000000 -35.840000
vt 1.000000 0.000000
vt 0.000000 1.000000
vt 0.000000 0.000000
vt 1.000000 1.000000
vn 0.0000 1.0000 0.0000
usemtl None
s off
f 138/137/69 139/138/69 137/139/69
f 138/137/69 140/140/69 139/138/69
o Cube_Cube.001
v 4.007009 -0.136172 -7.837124
v 4.007009 2.314054 -7.837124
v 4.007009 -0.136172 -13.237123
v 4.007009 2.314054 -13.237123
v 9.407009 -0.136172 -7.837124
v 9.407009 2.314054 -7.837124
v 9.407009 -0.136172 -13.237123
v 9.407009 2.314054 -13.237123
v 6.707009 -0.136172 -13.237123
v 6.707009 4.314054 -13.237123
v 6.707009 -0.136172 -7.837124
v 6.707009 4.314054 -7.837124
vt 0.625000 0.000000
vt 0.375000 0.250000
vt 0.375000 0.000000
vt 0.375000 0.375000
vt 0.625000 0.500000
vt 0.375000 0.500000
vt 0.375000 0.750000
vt 0.375000 0.875000
vt 0.625000 1.000000
vt 0.375000 1.000000
vt 0.250000 0.750000
vt 0.250000 0.500000
vt 0.875000 0.500000
vt 0.750000 0.750000
vt 0.750000 0.500000
vt 0.625000 0.750000
vt 0.125000 0.750000
vt 0.125000 0.500000
vt 0.625000 0.250000
vt 0.625000 0.375000
vt 0.625000 0.875000
vt 0.875000 0.750000
vn -1.0000 0.0000 0.0000
vn 0.0000 0.0000 -1.0000
vn 1.0000 0.0000 0.0000
vn 0.0000 0.0000 1.0000
vn 0.0000 -1.0000 0.0000
vn -0.5952 0.8036 0.0000
vn 0.5952 0.8036 0.0000
usemtl None
s off
f 142/141/70 143/142/70 141/143/70
f 149/144/71 148/145/71 147/146/71
f 148/145/72 145/147/72 147/146/72
f 151/148/73 142/149/73 141/150/73
f 147/146/74 151/151/74 149/152/74
f 144/153/75 152/154/75 150/155/75
f 150/155/76 146/156/76 148/145/76
f 149/152/74 141/157/74 143/158/74
f 146/156/73 151/148/73 145/147/73
f 144/159/71 149/144/71 143/142/71
f 142/141/70 144/159/70 143/142/70
f 149/144/71 150/160/71 148/145/71
f 148/145/72 146/156/72 145/147/72
f 151/148/73 152/161/73 142/149/73
f 147/146/74 145/147/74 151/151/74
f 144/153/75 142/162/75 152/154/75
f 150/155/76 152/154/76 146/156/76
f 149/152/74 151/151/74 141/157/74
f 146/156/73 152/161/73 151/148/73
f 144/159/71 150/160/71 149/144/71
